<mxfile host="app.diagrams.net" modified="2022-11-23T00:06:20.033Z" agent="5.0 (Windows NT 10.0; Win64; x64) AppleWebKit/537.36 (KHTML, like Gecko) Chrome/107.0.0.0 Safari/537.36" etag="yiaT6P7Ef4mdb4eMTWFD" version="20.5.3" type="github">
  <diagram name="Page-1" id="c4acf3e9-155e-7222-9cf6-157b1a14988f">
    <mxGraphModel dx="1021" dy="462" grid="1" gridSize="10" guides="1" tooltips="1" connect="1" arrows="1" fold="1" page="1" pageScale="1" pageWidth="850" pageHeight="1100" background="none" math="0" shadow="0">
      <root>
        <mxCell id="0" />
        <mxCell id="1" parent="0" />
        <mxCell id="-Cqq8zqIzmhQDDG5qnsU-8" style="edgeStyle=orthogonalEdgeStyle;rounded=0;orthogonalLoop=1;jettySize=auto;html=1;exitX=1;exitY=0.5;exitDx=0;exitDy=0;entryX=0;entryY=0.5;entryDx=0;entryDy=0;endArrow=none;endFill=0;" edge="1" parent="1" source="5d2195bd80daf111-19" target="-Cqq8zqIzmhQDDG5qnsU-2">
          <mxGeometry relative="1" as="geometry" />
        </mxCell>
        <mxCell id="5d2195bd80daf111-19" value="&lt;p style=&quot;margin:0px;margin-top:4px;text-align:center;&quot;&gt;&lt;b&gt;Item&lt;/b&gt;&lt;/p&gt;&lt;hr size=&quot;1&quot;&gt;&lt;p style=&quot;margin:0px;margin-left:4px;&quot;&gt;+ Id: int&lt;br&gt;+ Nome: string&lt;/p&gt;&amp;nbsp;+ ValorMinimo: decimal&lt;br&gt;&amp;nbsp;+ EmLeilao: bool&lt;br&gt;" style="verticalAlign=top;align=left;overflow=fill;fontSize=12;fontFamily=Helvetica;html=1;rounded=0;shadow=0;comic=0;labelBackgroundColor=none;strokeWidth=1" parent="1" vertex="1">
          <mxGeometry x="40" y="490" width="190" height="140" as="geometry" />
        </mxCell>
        <mxCell id="-Cqq8zqIzmhQDDG5qnsU-10" style="edgeStyle=orthogonalEdgeStyle;rounded=0;orthogonalLoop=1;jettySize=auto;html=1;exitX=0.5;exitY=0;exitDx=0;exitDy=0;entryX=0.5;entryY=1;entryDx=0;entryDy=0;endArrow=none;endFill=0;" edge="1" parent="1" source="-Cqq8zqIzmhQDDG5qnsU-2" target="-Cqq8zqIzmhQDDG5qnsU-4">
          <mxGeometry relative="1" as="geometry" />
        </mxCell>
        <mxCell id="-Cqq8zqIzmhQDDG5qnsU-2" value="&lt;p style=&quot;margin:0px;margin-top:4px;text-align:center;&quot;&gt;&lt;b&gt;Leilao&lt;/b&gt;&lt;/p&gt;&lt;hr size=&quot;1&quot;&gt;&lt;p style=&quot;margin:0px;margin-left:4px;&quot;&gt;+ DataInicio: DateTime&lt;br&gt;+ DataEnceramento: DateTime&lt;/p&gt;&amp;nbsp;+ LeilaoEmExcucao: bool&lt;br&gt;&amp;nbsp;+ Id: int&lt;br&gt;&amp;nbsp;+ ItemLeioloado: Item&lt;br&gt;&amp;nbsp;+ Lances: List&amp;lt;Lance&amp;gt;&lt;br&gt;" style="verticalAlign=top;align=left;overflow=fill;fontSize=12;fontFamily=Helvetica;html=1;rounded=0;shadow=0;comic=0;labelBackgroundColor=none;strokeWidth=1" vertex="1" parent="1">
          <mxGeometry x="300" y="475" width="190" height="170" as="geometry" />
        </mxCell>
        <mxCell id="-Cqq8zqIzmhQDDG5qnsU-11" style="edgeStyle=orthogonalEdgeStyle;rounded=0;orthogonalLoop=1;jettySize=auto;html=1;exitX=0;exitY=0.5;exitDx=0;exitDy=0;entryX=1;entryY=0.5;entryDx=0;entryDy=0;endArrow=none;endFill=0;" edge="1" parent="1" source="-Cqq8zqIzmhQDDG5qnsU-3" target="-Cqq8zqIzmhQDDG5qnsU-2">
          <mxGeometry relative="1" as="geometry" />
        </mxCell>
        <mxCell id="-Cqq8zqIzmhQDDG5qnsU-3" value="&lt;p style=&quot;margin:0px;margin-top:4px;text-align:center;&quot;&gt;&lt;b&gt;Lance&lt;/b&gt;&lt;/p&gt;&lt;hr size=&quot;1&quot;&gt;&lt;p style=&quot;margin:0px;margin-left:4px;&quot;&gt;+ DataLance: DateTime&lt;br&gt;&lt;/p&gt;&amp;nbsp;+ Leilao: Leilao&lt;br&gt;&amp;nbsp;+ Participante: Participante&lt;br&gt;&amp;nbsp;+ ValorLance: decimal" style="verticalAlign=top;align=left;overflow=fill;fontSize=12;fontFamily=Helvetica;html=1;rounded=0;shadow=0;comic=0;labelBackgroundColor=none;strokeWidth=1" vertex="1" parent="1">
          <mxGeometry x="605" y="490" width="190" height="140" as="geometry" />
        </mxCell>
        <mxCell id="-Cqq8zqIzmhQDDG5qnsU-4" value="&lt;p style=&quot;margin:0px;margin-top:4px;text-align:center;&quot;&gt;&lt;b&gt;LeilaoServico&lt;/b&gt;&lt;/p&gt;&lt;hr size=&quot;1&quot;&gt;&lt;p style=&quot;margin:0px;margin-left:4px;&quot;&gt;+ Leilao: Leilao&lt;br&gt;&lt;/p&gt;&lt;p style=&quot;margin:0px;margin-left:4px;&quot;&gt;+ Lance: Lance&lt;/p&gt;&amp;nbsp;+ Participanetes: List&amp;lt;Participamente&amp;gt;&lt;br&gt;&amp;nbsp;+ ValorLance: decimal&lt;br&gt;&lt;hr size=&quot;1&quot;&gt;&lt;p style=&quot;margin:0px;margin-left:4px;&quot;&gt;# DarLance(Leilao, Lance): bool&lt;br&gt;# IniciarLeilao(int): bool&lt;/p&gt;&amp;nbsp;# FinalizarLeilao(int): bool&lt;br&gt;&amp;nbsp; - validarLance(Lance): bool&lt;br&gt;&amp;nbsp;+ ObterVencedorLeilao(Leilao) : Participante" style="verticalAlign=top;align=left;overflow=fill;fontSize=12;fontFamily=Helvetica;html=1;rounded=0;shadow=0;comic=0;labelBackgroundColor=none;strokeWidth=1" vertex="1" parent="1">
          <mxGeometry x="270" y="190" width="250" height="210" as="geometry" />
        </mxCell>
        <mxCell id="-Cqq8zqIzmhQDDG5qnsU-7" style="edgeStyle=orthogonalEdgeStyle;rounded=0;orthogonalLoop=1;jettySize=auto;html=1;exitX=0;exitY=0.5;exitDx=0;exitDy=0;entryX=1;entryY=0.5;entryDx=0;entryDy=0;endArrow=none;endFill=0;" edge="1" parent="1" source="-Cqq8zqIzmhQDDG5qnsU-6" target="-Cqq8zqIzmhQDDG5qnsU-4">
          <mxGeometry relative="1" as="geometry" />
        </mxCell>
        <mxCell id="-Cqq8zqIzmhQDDG5qnsU-6" value="&lt;p style=&quot;margin:0px;margin-top:4px;text-align:center;&quot;&gt;&lt;b&gt;Participante&lt;/b&gt;&lt;/p&gt;&lt;hr size=&quot;1&quot;&gt;&lt;p style=&quot;margin:0px;margin-left:4px;&quot;&gt;+ Nome: string&lt;br&gt;&lt;/p&gt;&amp;nbsp;+ Id: int&lt;br&gt;&amp;nbsp;+ Cpf: string&lt;br&gt;&lt;hr size=&quot;1&quot;&gt;&lt;p style=&quot;margin:0px;margin-left:4px;&quot;&gt;+ RealizarCadastro(): bool&lt;br&gt;+ DarLance(Leilao, Lance, int): bool&lt;/p&gt;&lt;p style=&quot;margin:0px;margin-left:4px;&quot;&gt;+ ObterLeiloesAbertos(): List&amp;lt;Leilao&amp;gt;&lt;/p&gt;&lt;p style=&quot;margin:0px;margin-left:4px;&quot;&gt;- criarLance(Leilao, decimal): Lance&lt;/p&gt;&lt;p style=&quot;margin:0px;margin-left:4px;&quot;&gt;- validarCadastro() : bool&lt;/p&gt;&lt;p style=&quot;margin:0px;margin-left:4px;&quot;&gt;&lt;br&gt;&lt;/p&gt;" style="verticalAlign=top;align=left;overflow=fill;fontSize=12;fontFamily=Helvetica;html=1;rounded=0;shadow=0;comic=0;labelBackgroundColor=none;strokeWidth=1" vertex="1" parent="1">
          <mxGeometry x="590" y="210" width="220" height="170" as="geometry" />
        </mxCell>
      </root>
    </mxGraphModel>
  </diagram>
</mxfile>
